<svg width="130" height="75" viewBox="0 0 202 75" fill="none" xmlns="http://www.w3.org/2000/svg">
<ellipse cx="100.017" cy="21.0275" rx="20.8576" ry="21.0275" fill="#A94242"/>
<ellipse cx="99.8871" cy="20.8961" rx="12.9056" ry="13.0107" fill="white"/>
<path d="M56.2671 19.409L99.7628 28.0352L143.259 19.409V21.9753L99.7628 19.409L56.2671 21.9753V19.409Z" fill="white"/>
<ellipse cx="100.017" cy="21.0275" rx="7.12211" ry="7.18011" fill="#2B2B2B"/>
<path d="M27.9925 50.0909H32.9229L38.1303 62.7955H38.3519L43.5593 50.0909H48.4897V69H44.6119V56.6925H44.4549L39.5614 68.9077H36.9208L32.0273 56.6463H31.8704V69H27.9925V50.0909ZM60.8042 62.9616V54.8182H64.7374V69H60.9611V66.424H60.8134C60.4933 67.255 59.9609 67.9228 59.2161 68.4276C58.4774 68.9323 57.5757 69.1847 56.5108 69.1847C55.5629 69.1847 54.7289 68.9692 54.0087 68.5384C53.2885 68.1075 52.7253 67.495 52.3191 66.701C51.919 65.907 51.7158 64.956 51.7097 63.848V54.8182H55.6429V63.1463C55.6491 63.9834 55.8738 64.6451 56.3169 65.1314C56.7601 65.6177 57.3541 65.8608 58.0989 65.8608C58.5729 65.8608 59.016 65.7531 59.4284 65.5376C59.8408 65.3161 60.1732 64.9898 60.4256 64.5589C60.6841 64.1281 60.8103 63.5956 60.8042 62.9616ZM79.6832 58.8622L76.0824 59.0838C76.0208 58.776 75.8885 58.4991 75.6854 58.2528C75.4822 58.0005 75.2145 57.8004 74.8821 57.6527C74.5559 57.4988 74.165 57.4219 73.7095 57.4219C73.1001 57.4219 72.5862 57.5511 72.1676 57.8097C71.7491 58.062 71.5398 58.4006 71.5398 58.8253C71.5398 59.1638 71.6752 59.45 71.946 59.6839C72.2169 59.9179 72.6816 60.1056 73.3402 60.2472L75.907 60.7642C77.2857 61.0473 78.3137 61.5028 78.9908 62.1307C79.6678 62.7585 80.0064 63.5833 80.0064 64.6051C80.0064 65.5346 79.7325 66.3501 79.1847 67.0518C78.643 67.7536 77.8982 68.3014 76.9503 68.6953C76.0085 69.0831 74.9221 69.277 73.6911 69.277C71.8137 69.277 70.3179 68.8861 69.2038 68.1044C68.0959 67.3165 67.4465 66.2455 67.2557 64.8913L71.1243 64.6882C71.2412 65.2607 71.5244 65.6977 71.9737 65.9993C72.4231 66.2947 72.9986 66.4425 73.7003 66.4425C74.3897 66.4425 74.9437 66.3101 75.3622 66.0455C75.7869 65.7746 76.0024 65.4268 76.0085 65.0021C76.0024 64.6451 75.8516 64.3527 75.5561 64.125C75.2607 63.8911 74.8052 63.7126 74.1896 63.5895L71.7337 63.1001C70.3487 62.8232 69.3177 62.343 68.6406 61.6598C67.9697 60.9766 67.6342 60.1056 67.6342 59.0469C67.6342 58.1359 67.8804 57.3511 68.3729 56.6925C68.8714 56.0339 69.5701 55.526 70.4687 55.169C71.3736 54.812 72.4323 54.6335 73.6449 54.6335C75.4361 54.6335 76.8456 55.0121 77.8736 55.7692C78.9077 56.5263 79.5109 57.5573 79.6832 58.8622ZM86.4164 50.0909V69H82.4831V50.0909H86.4164ZM89.5671 69V54.8182H93.5004V69H89.5671ZM91.543 52.9901C90.9582 52.9901 90.4566 52.7962 90.038 52.4084C89.6256 52.0144 89.4194 51.5436 89.4194 50.9957C89.4194 50.4541 89.6256 49.9893 90.038 49.6016C90.4566 49.2076 90.9582 49.0107 91.543 49.0107C92.1277 49.0107 92.6263 49.2076 93.0387 49.6016C93.4573 49.9893 93.6665 50.4541 93.6665 50.9957C93.6665 51.5436 93.4573 52.0144 93.0387 52.4084C92.6263 52.7962 92.1277 52.9901 91.543 52.9901ZM96.6511 69V54.8182H100.4V57.3203H100.566C100.861 56.4893 101.354 55.8338 102.043 55.3537C102.733 54.8736 103.557 54.6335 104.518 54.6335C105.49 54.6335 106.318 54.8767 107.001 55.3629C107.684 55.843 108.14 56.4955 108.368 57.3203H108.515C108.805 56.5078 109.328 55.8584 110.085 55.3722C110.848 54.8797 111.75 54.6335 112.79 54.6335C114.114 54.6335 115.188 55.0552 116.013 55.8984C116.844 56.7356 117.259 57.9235 117.259 59.4624V69H113.335V60.2379C113.335 59.45 113.126 58.8591 112.707 58.4652C112.289 58.0713 111.765 57.8743 111.138 57.8743C110.424 57.8743 109.867 58.102 109.466 58.5575C109.066 59.0069 108.866 59.6009 108.866 60.3395V69H105.053V60.1548C105.053 59.4593 104.853 58.9053 104.453 58.4929C104.059 58.0805 103.539 57.8743 102.893 57.8743C102.456 57.8743 102.062 57.9851 101.711 58.2067C101.366 58.4221 101.092 58.7268 100.889 59.1207C100.686 59.5085 100.584 59.964 100.584 60.4872V69H96.6511ZM120.44 69V50.0909H127.9C129.328 50.0909 130.547 50.3464 131.556 50.8572C132.572 51.362 133.344 52.0791 133.874 53.0085C134.409 53.9318 134.677 55.0182 134.677 56.2678C134.677 57.5234 134.406 58.6037 133.865 59.5085C133.323 60.4072 132.538 61.0966 131.51 61.5767C130.488 62.0568 129.251 62.2969 127.798 62.2969H122.803V59.0838H127.152C127.915 59.0838 128.549 58.9792 129.054 58.7699C129.559 58.5606 129.934 58.2467 130.181 57.8281C130.433 57.4096 130.559 56.8894 130.559 56.2678C130.559 55.6399 130.433 55.1106 130.181 54.6797C129.934 54.2488 129.556 53.9226 129.045 53.701C128.54 53.4732 127.903 53.3594 127.134 53.3594H124.438V69H120.44ZM130.651 60.3949L135.351 69H130.938L126.34 60.3949H130.651ZM137.428 69V54.8182H141.362V69H137.428ZM139.404 52.9901C138.82 52.9901 138.318 52.7962 137.899 52.4084C137.487 52.0144 137.281 51.5436 137.281 50.9957C137.281 50.4541 137.487 49.9893 137.899 49.6016C138.318 49.2076 138.82 49.0107 139.404 49.0107C139.989 49.0107 140.488 49.2076 140.9 49.6016C141.319 49.9893 141.528 50.4541 141.528 50.9957C141.528 51.5436 141.319 52.0144 140.9 52.4084C140.488 52.7962 139.989 52.9901 139.404 52.9901ZM149.738 69.2308C148.661 69.2308 147.685 68.9538 146.811 68.3999C145.944 67.8397 145.254 67.018 144.743 65.9347C144.239 64.8452 143.986 63.5095 143.986 61.9276C143.986 60.3026 144.248 58.9515 144.771 57.8743C145.294 56.791 145.99 55.9815 146.858 55.446C147.732 54.9044 148.689 54.6335 149.729 54.6335C150.523 54.6335 151.185 54.7689 151.714 55.0398C152.25 55.3045 152.681 55.6368 153.007 56.0369C153.339 56.4309 153.591 56.8187 153.764 57.2003H153.884V50.0909H157.808V69H153.93V66.7287H153.764C153.579 67.1226 153.318 67.5135 152.979 67.9013C152.647 68.2829 152.213 68.5999 151.677 68.8523C151.148 69.1046 150.502 69.2308 149.738 69.2308ZM150.985 66.1009C151.619 66.1009 152.154 65.9285 152.591 65.5838C153.034 65.233 153.373 64.7436 153.607 64.1158C153.847 63.4879 153.967 62.7524 153.967 61.9091C153.967 61.0658 153.85 60.3333 153.616 59.7116C153.382 59.09 153.044 58.6098 152.6 58.2713C152.157 57.9328 151.619 57.7635 150.985 57.7635C150.338 57.7635 149.794 57.9389 149.35 58.2898C148.907 58.6406 148.572 59.1269 148.344 59.7486C148.116 60.3703 148.002 61.0904 148.002 61.9091C148.002 62.7339 148.116 63.4633 148.344 64.0973C148.578 64.7251 148.913 65.2176 149.35 65.5746C149.794 65.9254 150.338 66.1009 150.985 66.1009ZM167.505 69.277C166.046 69.277 164.79 68.9815 163.738 68.3906C162.691 67.7936 161.885 66.9503 161.319 65.8608C160.752 64.7652 160.469 63.4695 160.469 61.9737C160.469 60.5149 160.752 59.2346 161.319 58.1328C161.885 57.031 162.682 56.1723 163.71 55.5568C164.744 54.9413 165.957 54.6335 167.348 54.6335C168.283 54.6335 169.154 54.7843 169.961 55.0859C170.773 55.3814 171.481 55.8277 172.084 56.4247C172.694 57.0218 173.168 57.7727 173.506 58.6776C173.845 59.5762 174.014 60.6288 174.014 61.8352V62.9155H162.039V60.478H170.312C170.312 59.9117 170.189 59.41 169.942 58.973C169.696 58.536 169.354 58.1944 168.917 57.9482C168.487 57.6958 167.985 57.5696 167.412 57.5696C166.815 57.5696 166.286 57.7081 165.824 57.9851C165.369 58.2559 165.012 58.6222 164.753 59.0838C164.495 59.5393 164.363 60.0471 164.356 60.6072V62.9247C164.356 63.6264 164.486 64.2327 164.744 64.7436C165.009 65.2545 165.381 65.6484 165.861 65.9254C166.341 66.2024 166.911 66.3409 167.569 66.3409C168.006 66.3409 168.407 66.2794 168.77 66.1562C169.133 66.0331 169.444 65.8485 169.702 65.6023C169.961 65.3561 170.158 65.0545 170.293 64.6974L173.931 64.9375C173.746 65.8116 173.368 66.5748 172.795 67.2273C172.229 67.8736 171.497 68.3783 170.598 68.7415C169.705 69.0985 168.674 69.277 167.505 69.277Z" fill="#555555"/>
</svg>
